 <svg  version="1.0" xmlns="http://www.w3.org/2000/svg"  width="300.000000pt" height="300.000000pt" viewBox="0 0 300.000000 300.000000"  preserveAspectRatio="xMidYMid meet">  <g transform="translate(0.000000,300.000000) scale(0.100000,-0.100000)" fill="#e0bd3e" stroke="none"> <path d="M1513 2370 c-18 -11 -38 -29 -45 -40 -8 -12 -24 -20 -39 -20 -39 0 -91 -40 -107 -82 -21 -53 -8 -102 37 -147 l37 -37 -4 -97 c-3 -67 -1 -97 7 -97 6 0 11 16 11 35 0 34 1 35 38 35 82 0 218 -48 299 -106 27 -19 51 -34 56 -34 4 0 17 20 29 45 21 42 25 45 62 45 61 0 123 35 157 88 16 25 29 54 29 64 0 28 -28 76 -47 82 -15 5 -17 15 -15 49 5 53 -26 96 -73 101 -22 2 -31 10 -37 31 -18 70 -87 102 -170 80 -47 -12 -55 -11 -87 6 -46 24 -97 24 -138 -1z m151 -64 l19 -25 29 22 c65 48 158 13 158 -60 0 -31 2 -33 35 -33 22 0 41 -8 55 -22 22 -24 25 -44 10 -82 -8 -22 -7 -26 10 -26 27 0 52 -42 44 -74 -11 -47 -119 -125 -141 -102 -3 3 2 15 11 25 17 19 17 21 -18 52 l-37 32 27 28 c31 33 15 39 -22 10 -24 -19 -25 -19 -69 6 l-45 25 21 35 c29 47 16 53 -23 11 -32 -33 -34 -34 -68 -22 -19 7 -43 13 -54 13 -16 1 -18 6 -12 44 5 39 5 40 -9 23 -8 -11 -15 -28 -15 -38 0 -15 -8 -18 -50 -18 -47 0 -50 2 -50 25 0 14 -4 25 -10 25 -5 0 -10 -7 -10 -15 0 -15 -39 -95 -46 -95 -14 0 -44 71 -44 106 0 57 49 101 95 84 16 -6 24 0 40 29 36 63 126 73 169 17z m-20 -240 c73 -25 183 -83 204 -109 9 -11 5 -26 -19 -70 -17 -32 -32 -57 -34 -57 -2 0 -32 18 -67 39 -80 50 -174 82 -250 84 l-59 2 5 29 c4 17 11 47 17 68 l10 38 60 0 c38 0 88 -9 133 -24z"/> <path d="M1446 1784 c-15 -9 -39 -14 -52 -11 -29 5 -32 -13 -6 -36 26 -23 74 -31 114 -18 28 9 40 7 82 -14 57 -29 67 -30 105 -10 34 17 52 50 23 41 -11 -4 -36 6 -64 24 -29 19 -57 30 -79 29 -19 0 -47 2 -64 5 -18 4 -41 0 -59 -10z m188 -50 c18 -12 17 -13 -10 -10 -46 6 -68 17 -53 26 13 9 34 4 63 -16z"/> <path d="M1315 1680 c-8 -12 20 -24 35 -15 5 3 10 10 10 16 0 12 -37 12 -45 -1z"/> <path d="M1829 1667 c-37 -24 -63 -71 -73 -129 -10 -56 6 -46 35 21 19 43 35 64 58 76 85 44 162 -46 116 -134 -38 -74 -145 -132 -282 -154 -65 -10 -73 -14 -73 -34 0 -12 -5 -25 -10 -28 -24 -15 -68 -22 -81 -14 -11 7 -9 13 10 28 l24 19 -76 3 c-80 5 -115 21 -87 40 8 5 41 8 73 5 49 -3 56 -2 46 10 -10 12 0 14 64 14 60 0 80 4 98 20 24 19 24 19 -279 20 l-302 0 19 38 c38 75 120 130 205 139 105 11 212 -42 256 -126 18 -34 19 -34 20 -10 0 14 -13 46 -29 71 -64 101 -228 139 -351 82 -63 -29 -143 -108 -162 -160 -11 -30 -16 -34 -48 -34 l-35 -1 24 -19 c21 -18 39 -20 215 -20 184 -1 190 -1 164 -18 -16 -9 -28 -22 -28 -28 0 -20 49 -45 100 -51 40 -5 50 -10 50 -24 0 -23 37 -34 86 -24 l37 6 -27 -45 c-32 -54 -18 -60 30 -12 26 26 34 43 34 69 l0 34 73 12 c129 21 253 96 291 175 23 49 21 117 -5 150 -46 58 -122 72 -180 33z"/> <path d="M676 877 c-25 -73 -46 -135 -46 -138 0 -4 15 -6 32 -4 25 2 34 8 38 26 5 21 12 24 57 27 49 3 51 2 57 -25 6 -24 12 -28 42 -29 23 0 33 3 30 12 -2 6 -24 69 -48 138 l-43 126 -36 0 -36 0 -47 -133z m104 78 c0 -8 -9 -10 -25 -7 -20 3 -23 7 -14 18 12 15 39 8 39 -11z m-7 -52 c3 -16 9 -36 12 -45 6 -15 2 -18 -25 -18 -21 0 -38 -8 -51 -22 -15 -19 -18 -20 -19 -6 0 10 9 22 20 28 12 6 25 30 32 55 13 48 22 50 31 8z"/> <path d="M922 873 l3 -137 30 -1 30 0 -3 75 c-2 46 -9 81 -18 91 -19 21 -18 69 1 69 19 0 49 -57 33 -62 -6 -2 13 -39 45 -87 48 -72 60 -84 86 -86 l31 -3 0 139 0 139 -30 0 -29 0 -3 -86 -3 -85 -55 85 c-50 78 -58 85 -88 86 l-33 0 3 -137z m208 -58 c0 -42 -2 -45 -19 -36 -30 17 -34 41 -9 62 13 10 24 18 26 19 1 0 2 -20 2 -45z"/> <path d="M1310 873 l0 -138 30 -1 30 -1 0 72 c0 52 -4 76 -15 85 -16 13 -21 80 -6 80 9 0 41 -44 41 -55 0 -4 -5 -3 -12 1 -18 11 -5 -15 51 -101 43 -66 56 -78 81 -80 l30 -3 0 139 0 139 -30 0 -30 0 0 -86 0 -87 -56 87 c-49 75 -60 86 -85 86 l-29 0 0 -137z m196 -90 c-5 -12 -10 -10 -27 11 l-21 26 24 19 23 19 3 -30 c2 -16 1 -37 -2 -45z"/> <path d="M1644 991 c-62 -38 -82 -131 -41 -192 44 -67 128 -85 207 -44 28 15 30 19 30 75 l0 60 -60 0 c-57 0 -60 -1 -60 -25 0 -21 5 -25 30 -25 23 0 30 -5 30 -19 0 -38 -75 -43 -108 -8 -13 14 -22 36 -22 56 0 68 40 99 98 75 29 -12 37 -11 58 2 13 9 24 18 24 19 0 2 -15 13 -34 24 -42 27 -110 27 -152 2z"/> <path d="M1944 991 c-48 -30 -64 -59 -64 -117 0 -67 30 -114 86 -133 147 -51 257 126 144 234 -40 38 -119 46 -166 16z m126 -61 c44 -44 9 -140 -51 -140 -66 0 -101 79 -58 134 26 33 79 36 109 6z"/> <path d="M2195 874 l0 -137 33 -2 32 -3 0 53 c0 74 -9 115 -25 108 -10 -3 -13 5 -9 33 3 21 7 40 10 43 10 10 34 -32 29 -49 -3 -10 17 -51 49 -100 47 -72 58 -83 85 -85 l31 -3 0 139 0 139 -36 0 c-29 0 -35 -3 -30 -16 3 -9 6 -45 6 -80 0 -40 4 -63 10 -59 12 7 24 -39 16 -60 -8 -21 -23 -19 -37 6 -7 14 -8 24 -1 28 6 3 -14 44 -47 93 -50 78 -59 88 -86 88 l-30 0 0 -136z"/> </g> </svg> 